<?xml version="1.0" standalone="no"?><!DOCTYPE svg PUBLIC "-//W3C//DTD SVG 1.1//EN" "http://www.w3.org/Graphics/SVG/1.1/DTD/svg11.dtd"><svg t="1536888667643" class="icon" style="" viewBox="0 0 1024 1024" version="1.1" xmlns="http://www.w3.org/2000/svg" p-id="1086" xmlns:xlink="http://www.w3.org/1999/xlink" width="25" height="25"><defs><style type="text/css"></style></defs><path d="M912.74 332.99h0.122c-38.593-98.546-101.945-132.406-154.252-132.528-100.125-0.122-127.431 72.211-143.815 124.518l-0.242 0.729c-0.485 1.456-0.971 3.035-1.456 4.491-0.122 0.485-0.242 0.971-0.485 1.456l-89.324 289.936c-4.611 14.685-7.646 28.641-8.98 41.748h-1.578c-1.092-12.743-3.762-26.336-8.253-40.778l-89.081-291.514h-94.663l141.145 412.391h99.154l142.965-412.391c1.334-3.035 10.801-45.025 44.661-46.725 33.982 0 57.162 46.361 57.405 46.725 29.127 49.881 45.754 108.013 45.754 169.908 0 186.656-151.34 337.874-337.874 337.874-186.656 0-337.874-151.34-337.874-337.874 0-186.049 150.247-336.903 335.933-337.874 26.7 0 48.302-21.603 48.302-48.302s-21.603-48.302-48.302-48.302c-239.935 0-434.48 194.545-434.48 434.48s194.545 434.48 434.48 434.48 434.48-194.545 434.48-434.48c0-59.589-12.015-116.266-33.739-167.967z" p-id="1087" fill="#707070"></path></svg>